<?xml version="1.0" encoding="UTF-8" standalone="no"?>
<!DOCTYPE svg PUBLIC "-//W3C//DTD SVG 1.1//EN" "http://www.w3.org/Graphics/SVG/1.1/DTD/svg11.dtd">
<svg width="100%" height="100%" viewBox="0 0 1372 644" version="1.1" xmlns="http://www.w3.org/2000/svg" xmlns:xlink="http://www.w3.org/1999/xlink" xml:space="preserve" xmlns:serif="http://www.serif.com/" style="fill-rule:evenodd;clip-rule:evenodd;stroke-linejoin:round;stroke-miterlimit:2;">
    <g transform="matrix(1,0,0,1,-29.5153,-21.9)">
        <g transform="matrix(0.1,0,0,-0.1,0,680)">
            <path d="M2010,6471C2010,6410 2020,6271 2032,6163C2051,5997 2055,5911 2055,5630C2055,5057 2017,4860 1739,3962C1600,3514 1481,3171 1320,2755C1250,2574 1178,2386 1160,2338C1141,2289 1126,2251 1124,2253C1123,2254 1131,2300 1141,2355C1219,2760 1346,3941 1400,4760C1411,4928 1425,5114 1430,5174C1441,5287 1437,5305 1404,5298C1393,5296 1382,5279 1374,5250C1368,5225 1333,5095 1297,4960C1261,4825 1197,4582 1155,4420C1113,4258 1055,4040 1025,3935C957,3693 677,2799 612,2615C550,2441 488,2279 484,2282C483,2284 511,2420 546,2584C630,2971 660,3141 667,3271C674,3400 668,3430 637,3430C599,3430 520,3327 520,3278C520,3236 553,3241 585,3287L610,3325L610,3274C610,3122 405,2150 315,1876C287,1789 288,1767 322,1772C341,1775 360,1815 457,2060C648,2540 665,2590 915,3395C1049,3826 1084,3949 1220,4469C1286,4720 1344,4939 1350,4955C1388,5070 1264,3624 1175,2915C1138,2626 1096,2385 1040,2139C1012,2020 990,1915 990,1906C990,1893 997,1890 1016,1892C1046,1895 1066,1939 1197,2285C1238,2395 1321,2611 1380,2765C1542,3186 1628,3439 1810,4025C2025,4721 2080,4981 2101,5410C2114,5670 2108,5876 2080,6150C2050,6445 2053,6452 2104,6205C2202,5726 2246,5252 2257,4550C2265,4043 2243,3640 2184,3215C2167,3090 2107,2760 2088,2685L2075,2635L1945,2623C1705,2600 1521,2561 1417,2509C1347,2475 1277,2412 1250,2359C1228,2317 1210,2219 1210,2143C1210,2098 1213,2090 1229,2090C1244,2090 1248,2101 1254,2168C1265,2307 1290,2357 1375,2422C1437,2469 1534,2505 1677,2535C1798,2560 2045,2588 2056,2577C2064,2569 2021,2394 1925,2050C1756,1441 1720,1231 1733,920C1742,712 1781,556 1863,396C1937,253 2063,152 2172,147C2209,145 2215,148 2215,164C2215,179 2204,187 2168,196C2022,233 1922,353 1846,581C1801,715 1780,845 1780,991C1780,1268 1814,1455 1975,2045C2021,2216 2072,2407 2088,2470L2116,2585L2258,2591L2224,2513C2157,2358 2144,2224 2191,2174C2209,2155 2224,2150 2261,2150C2300,2150 2317,2156 2361,2190C2428,2240 2515,2348 2572,2451C2655,2604 2641,2590 2714,2590C2778,2590 2779,2590 2801,2553C2936,2329 3129,2301 3832,2399C4189,2450 4255,2456 4525,2471C4684,2479 4789,2479 4904,2472C4991,2466 5065,2459 5068,2456C5080,2443 4976,1975 4935,1861C4914,1802 4916,1780 4940,1780C4955,1780 4964,1796 4984,1859C5020,1972 5044,2070 5085,2270C5105,2366 5124,2448 5128,2451C5132,2455 5259,2452 5410,2444C5561,2437 5874,2431 6105,2430C6518,2430 6712,2421 7135,2384C7240,2375 7330,2363 7337,2358C7345,2352 7332,2303 7289,2180C7216,1968 7183,1842 7168,1718C7155,1610 7164,1570 7199,1570C7229,1570 7237,1593 7275,1782C7305,1936 7349,2120 7397,2293C7411,2345 7415,2350 7440,2350C7480,2350 7829,2302 7840,2295C7846,2292 7850,2280 7850,2268C7850,2222 7902,1996 7930,1917C7984,1769 8057,1714 8145,1755C8201,1782 8315,1912 8417,2068L8511,2210L8553,2203C8624,2192 8635,2193 8635,2215C8635,2231 8625,2237 8584,2245L8533,2255L8603,2380C8974,3044 9031,3123 9158,3155C9286,3188 9409,3118 9705,2846C9973,2599 10135,2478 10330,2380C10555,2267 10773,2207 11095,2169C11229,2152 11907,2153 12125,2169C12219,2176 12527,2199 12810,2220C13093,2241 13456,2266 13615,2275C14008,2297 14010,2297 14010,2321C14010,2340 14005,2340 13878,2335C13552,2320 13176,2296 12680,2260C12012,2210 11817,2200 11565,2200C11016,2200 10680,2264 10364,2426C10174,2523 10030,2630 9801,2841C9596,3031 9541,3078 9460,3131C9362,3196 9270,3225 9184,3217C9102,3209 9058,3186 8988,3113C8898,3017 8845,2932 8545,2397C8501,2317 8463,2260 8456,2263C8450,2266 8326,2282 8182,2301C8037,2319 7912,2339 7905,2344C7895,2352 7885,2411 7873,2537L7856,2720L7882,2747C7979,2848 7953,3007 7811,3195C7745,3282 7535,3488 7385,3614C6987,3946 6507,4258 5776,4661L5588,4765L5594,4817C5597,4845 5605,4881 5610,4896L5621,4923L5813,4917C6003,4911 6218,4888 6646,4830C7076,4772 7123,4768 7400,4763C7673,4758 7807,4766 7837,4792C7859,4810 7852,4847 7823,4868C7742,4925 7483,5035 7218,5125C6778,5275 6322,5389 5361,5591C5134,5638 5059,5650 4986,5650C4866,5650 4848,5639 4852,5567C4855,5519 4857,5515 4880,5515C4901,5515 4906,5521 4910,5550L4915,5585L4989,5588C5077,5592 5305,5550 5882,5424C6463,5298 6829,5201 7184,5080C7460,4986 7779,4845 7760,4826C7745,4811 7371,4806 7203,4819C7122,4826 6970,4842 6865,4856C6195,4943 6061,4957 5820,4965C5724,4969 5640,4973 5634,4975C5626,4977 5627,5003 5637,5062C5645,5107 5652,5202 5653,5272C5654,5383 5652,5401 5636,5419C5609,5449 5565,5446 5544,5414C5522,5381 5470,5197 5470,5153C5470,5123 5473,5119 5492,5122C5517,5125 5527,5148 5561,5278C5573,5323 5586,5360 5591,5360C5605,5360 5601,5186 5586,5080C5570,4974 5564,4966 5493,4956C5439,4949 5390,4910 5390,4874C5390,4845 5422,4807 5476,4769C5507,4748 5520,4732 5520,4716C5520,4685 5414,4145 5344,3820C5271,3485 5222,3243 5150,2861C5117,2689 5087,2544 5084,2539C5072,2519 4660,2531 4155,2565C3709,2595 3170,2624 2906,2633L2826,2635L2792,2720C2750,2824 2744,2832 2707,2828C2679,2825 2673,2817 2641,2745C2621,2701 2601,2659 2597,2653C2591,2644 2555,2640 2473,2640C2372,2640 2359,2642 2364,2656C2367,2665 2400,2716 2436,2771C2481,2839 2508,2870 2521,2870C2545,2870 2581,2927 2578,2960C2574,2992 2537,2999 2509,2974C2477,2945 2393,2828 2336,2733L2283,2645L2206,2640C2149,2636 2130,2638 2130,2648C2130,2655 2139,2700 2149,2748C2197,2965 2245,3304 2282,3700C2300,3888 2300,4959 2282,5210C2251,5637 2196,6038 2124,6348C2076,6557 2069,6574 2037,6578L2010,6581L2010,6471ZM5786,4589C6458,4213 6903,3927 7245,3652C7669,3311 7890,3051 7890,2895C7890,2862 7863,2790 7850,2790C7846,2790 7838,2826 7831,2869C7805,3028 7748,3140 7694,3140C7662,3140 7628,3094 7597,3009C7583,2968 7543,2857 7509,2763C7475,2668 7444,2590 7440,2590C7435,2590 7429,2608 7426,2630C7423,2652 7417,2688 7414,2710C7407,2760 7380,2796 7355,2787C7342,2782 7339,2773 7343,2752C7367,2628 7372,2590 7367,2577C7357,2551 7141,2518 6843,2495C6595,2476 6490,2476 6171,2495C5789,2517 5464,2530 5292,2530L5138,2530L5145,2578C5159,2673 5311,3434 5380,3750C5418,3929 5478,4216 5512,4388C5546,4559 5577,4700 5581,4700C5585,4700 5677,4650 5786,4589ZM7739,2984C7764,2920 7793,2779 7788,2749C7786,2734 7766,2716 7725,2694C7657,2656 7532,2604 7525,2611C7521,2616 7672,3038 7686,3062C7696,3077 7715,3049 7739,2984ZM7801,2668C7805,2658 7836,2354 7834,2351C7829,2346 7460,2394 7448,2401C7437,2408 7471,2511 7491,2534C7495,2539 7544,2560 7600,2581C7656,2602 7720,2630 7743,2644C7783,2667 7799,2673 7801,2668ZM2570,2583C2570,2568 2478,2414 2438,2362C2380,2288 2293,2210 2266,2210C2254,2210 2239,2215 2232,2222C2203,2251 2229,2377 2290,2508L2329,2590L2449,2590C2516,2590 2570,2587 2570,2583ZM3485,2561C4251,2518 4339,2510 4170,2497C4123,2493 3988,2476 3870,2460C3310,2381 3112,2380 2985,2455C2947,2477 2860,2563 2860,2579C2860,2586 3214,2576 3485,2561ZM7370,2479C7370,2462 7365,2439 7359,2428C7349,2410 7342,2408 7289,2414C7257,2418 7160,2427 7074,2435C6989,2442 6916,2450 6914,2453C6912,2455 6954,2460 7007,2464C7061,2468 7155,2480 7215,2489C7374,2515 7370,2516 7370,2479ZM8197,2254C8319,2239 8425,2223 8431,2219C8445,2211 8320,2018 8235,1918C8159,1829 8108,1793 8072,1806C8020,1823 7952,1998 7916,2203C7909,2245 7906,2282 7909,2285C7912,2289 7928,2289 7945,2286C7961,2283 8075,2269 8197,2254Z" style="fill-rule:nonzero;"/>
        </g>
    </g>
</svg>
